<svg width="886" height="676" viewBox="0 0 886 676" fill="none" xmlns="http://www.w3.org/2000/svg">
<path d="M451.879 400.092C454.373 401.341 456.867 401.341 451.879 407.583C446.892 413.827 426.941 426.315 411.978 452.538C397.015 478.761 390.781 492.498 377.064 523.716C363.348 554.934 360.855 564.923 360.855 564.923" stroke="#222B41" stroke-width="4.05707" stroke-miterlimit="10"/>
<path d="M321.578 570.542C321.578 574.289 326.565 583.029 334.046 590.522C341.527 598.014 351.502 603.009 353.997 603.009C356.49 603.009 362.725 601.761 363.972 591.77C365.218 581.782 363.972 569.294 358.985 563.05C351.254 553.435 336.539 556.806 331.552 559.303C326.565 561.801 324.071 565.547 322.824 566.796C321.578 568.045 321.578 570.542 321.578 570.542Z" stroke="#222B41" stroke-width="4.05707" stroke-miterlimit="10"/>
<path d="M342.774 566.796C334.046 566.796 327.811 573.04 324.071 578.035" stroke="#222B41" stroke-width="2.9506" stroke-miterlimit="10"/>
<path d="M350.754 578.035C350.754 578.035 340.281 581.781 335.294 591.77" stroke="#222B41" stroke-width="2.9506" stroke-miterlimit="10"/>
<path d="M353.997 603.009C353.997 603.009 363.972 616.745 371.453 625.486C378.936 634.228 388.909 641.72 388.909 641.72C388.909 641.72 400.132 626.735 425.071 606.756C450.009 586.775 469.958 578.035 471.206 574.289C472.453 570.542 472.453 575.538 483.676 570.542C494.897 565.547 506.12 560.552 524.823 550.563C543.527 540.573 555.995 534.329 559.737 530.583C563.477 526.836 563.477 526.836 563.477 526.836C563.477 526.836 573.453 529.334 594.649 526.836C615.848 524.34 671.958 518.096 705.625 513.101C739.291 508.106 771.711 501.862 771.711 501.862C771.711 501.862 825.328 496.867 829.068 496.867C832.809 496.867 850.265 488.127 862.735 481.883C875.203 475.639 882.686 469.395 882.686 468.146C882.686 466.897 883.932 464.401 875.203 463.153C866.475 461.904 799.142 448.167 774.204 441.923C749.267 435.681 719.34 426.939 710.612 424.442C701.884 421.944 649.514 376.989 630.811 360.757C612.106 344.524 574.699 317.052 569.711 312.057C564.723 307.062 562.23 297.071 553.502 290.827C544.774 284.585 534.799 284.585 531.058 280.839C527.316 277.092 522.329 259.609 512.353 255.864C502.379 252.118 485.421 246.749 482.926 244.251C480.433 241.754 482.926 250.494 482.926 250.494C482.926 250.494 481.68 255.489 479.186 250.494C476.693 245.5 480.682 243.751 480.682 243.751C480.682 243.751 479.934 237.007 474.946 232.014C469.958 227.019 461.23 215.779 458.737 209.536C456.243 203.293 443.774 147.1 433.799 128.369C423.823 109.638 427.564 104.643 421.33 92.1559C415.095 79.6686 413.848 79.6686 413.848 78.42" stroke="#222B41" stroke-width="4.05707" stroke-miterlimit="10"/>
<path d="M433.799 125.996C433.799 125.996 437.539 114.758 436.292 101.022C435.046 87.286 432.551 81.0423 432.551 81.0423C432.551 81.0423 436.292 84.7885 442.527 84.7885C448.762 84.7885 452.003 78.5449 452.003 78.5449C452.003 78.5449 458.737 78.5449 457.49 76.0473C456.243 73.5499 451.255 71.0525 443.774 67.3062C436.292 63.5602 430.058 52.3215 413.848 43.5805C397.639 34.8394 390.157 31.0933 378.934 21.1035C367.713 11.1137 358.985 7.36753 352.75 3.62135C346.515 -0.124825 337.787 3.62135 330.306 4.87007C322.824 6.1188 315.343 7.36753 315.343 7.36753" stroke="#222B41" stroke-width="4.05707" stroke-miterlimit="10"/>
<path d="M356.615 85.7874C356.615 85.7874 353.373 81.0422 352.875 72.3011C352.376 63.56 352.875 62.3114 342.9 46.0779C332.924 29.8446 312.973 3.62126 312.973 3.62126C312.973 3.62126 311.726 2.37254 305.493 1.12381C299.258 -0.12491 279.058 7.49231 274.319 9.86489C264.344 14.8598 263.098 21.1035 264.344 24.8496" stroke="#222B41" stroke-width="4.05707" stroke-miterlimit="10"/>
<path d="M175.689 64.0595C175.689 64.0595 178.183 59.8138 188.159 56.0677C198.134 52.3215 265.466 24.8495 265.466 24.8495C265.466 24.8495 277.936 19.8547 290.404 19.8547C302.873 19.8547 312.848 26.0983 321.578 39.8342C330.306 53.5702 330.306 56.0677 334.046 69.8036C337.787 83.5396 351.502 124.747 350.257 142.23C349.009 159.712 349.009 167.205 342.774 178.442C336.539 189.682 324.071 203.417 324.071 219.651C324.071 228.391 324.071 232.137 324.071 232.137C324.071 232.137 321.578 239.63 321.578 240.879C321.578 242.128 322.824 242.128 326.565 240.879C330.306 239.63 332.799 238.381 330.306 235.884C327.811 233.386 325.318 233.386 321.578 229.64C317.836 225.895 315.343 223.397 310.355 217.153C305.367 210.909 304.12 209.661 304.12 209.661" stroke="#222B41" stroke-width="4.05707" stroke-miterlimit="10"/>
<path d="M270.453 74.7985C261.725 89.7832 274.195 107.265 289.157 108.514C301.876 109.513 307.86 106.017 316.59 101.022C325.318 96.0269 325.318 79.7935 324.071 73.5499C322.824 67.3062 315.343 61.0626 305.367 59.8138C295.392 58.5652 282.424 66.3072 276.688 69.8037C270.453 73.5499 267.96 77.2959 265.466 79.7935C262.973 82.2909 260.478 78.5447 260.478 78.5447C260.478 78.5447 257.985 77.2959 259.232 79.7935C260.478 82.2909 262.973 82.2909 264.22 84.7884C265.466 87.2858 266.713 91.032 267.96 91.032" stroke="#222B41" stroke-width="3.31942" stroke-miterlimit="10"/>
<path d="M294.145 210.909C294.145 210.909 296.639 229.64 306.615 239.63C316.59 249.62 334.794 269.6 336.291 271.473C337.787 273.346 337.787 275.843 337.787 277.092" stroke="#222B41" stroke-width="4.05707" stroke-miterlimit="10"/>
<path d="M201.626 212.158C201.626 212.158 204.493 217.153 210.728 217.153C216.961 217.153 241.9 215.905 259.356 214.656C276.814 213.407 293.023 210.909 301.752 209.661C310.48 208.412 326.689 205.914 326.689 205.914" stroke="#222B41" stroke-width="4.05707" stroke-miterlimit="10"/>
<path d="M220.578 182.189C220.578 182.189 224.318 187.184 225.566 187.184C226.811 187.184 229.306 174.696 231.799 174.696C234.294 174.696 238.034 182.189 241.775 182.189C245.516 182.189 259.232 164.707 261.725 164.707C264.22 164.707 268.084 175.945 271.078 175.945C274.07 175.945 279.182 163.459 282.923 163.459C286.664 163.459 295.392 173.447 299.132 173.447C302.873 173.447 315.827 163.459 310.355 155.966" stroke="#222B41" stroke-width="2.9506" stroke-miterlimit="10"/>
<path d="M216.213 130.866C216.213 130.866 261.476 123.374 298.01 116.006C335.417 108.514 344.147 104.643 344.147 104.643" stroke="#222B41" stroke-width="2.21295" stroke-miterlimit="10"/>
<path d="M130.801 122.25C133.294 125.996 134.541 124.748 137.035 124.748C139.529 124.748 142.023 124.748 142.023 122.25C142.023 119.753 142.023 117.255 137.035 113.509C132.048 109.763 130.801 112.26 129.554 113.509C128.307 114.758 129.429 116.256 129.554 117.255C129.678 118.254 128.681 119.003 130.801 122.25Z" stroke="#222B41" stroke-width="3.68825" stroke-miterlimit="10"/>
<path d="M154.492 119.753C154.492 119.753 155.739 119.753 155.739 116.006C155.739 112.26 158.232 109.763 159.48 108.514C165.713 102.27 169.455 102.27 171.948 102.27C174.443 102.27 176.936 103.519 179.431 107.265C181.924 111.012 181.924 109.763 182.797 109.763C183.669 109.763 183.171 107.265 181.924 102.27C180.676 97.2756 174.443 94.7782 169.455 94.7782C164.467 94.7782 156.985 97.2756 150.752 103.519C144.516 109.763 145.763 113.509 145.763 118.504C145.763 123.499 150.752 124.747 150.752 124.747C150.752 124.747 154.492 125.996 158.232 122.25C161.973 118.504 166.212 117.005 168.208 117.255C170.203 117.505 175.689 118.504 173.196 121.001C170.701 123.499 168.208 124.747 163.22 125.996C158.232 127.245 158.232 127.245 156.985 128.494C155.739 129.742 153.245 128.494 153.245 127.245C153.245 125.996 153.245 124.747 153.245 124.747" stroke="#222B41" stroke-width="2.9506" stroke-miterlimit="10"/>
<path d="M153.769 127.951V125.279L155.105 124.339L158.222 122.607L163.219 118.501L167.573 117.313L173.659 118.501V120.826L169.799 123.993L159.608 127.01L155.65 128.643L153.769 127.951Z" fill="#222B41"/>
<path d="M191.899 103.519C191.899 103.519 189.406 94.7782 193.146 92.2808C196.887 89.7834 204.368 86.0372 208.109 96.0269C211.85 106.017 215.59 114.009 209.355 117.255C203.122 120.502 201.001 119.253 200.128 118.254C199.38 117.255 199.38 116.007 199.38 116.007C199.38 116.007 200.627 113.509 203.122 111.012C205.615 108.514 204.368 108.639 201.874 109.763C199.38 110.887 196.887 114.758 196.887 113.509C196.887 111.012 199.256 108.514 198.134 108.514C197.012 108.514 194.891 111.012 194.018 109.763C193.146 108.514 196.388 105.517 199.38 103.519C203.122 101.022 196.887 103.519 191.899 107.266" stroke="#222B41" stroke-width="2.9506" stroke-miterlimit="10"/>
<path d="M134.791 111.511C134.791 111.511 135.913 107.265 134.666 103.519C133.419 99.7732 132.172 93.5296 133.419 88.5347C134.666 83.5397 137.16 76.0475 147.135 69.8038C157.11 63.5602 168.333 61.0627 175.814 63.5602C183.295 66.0576 194.517 78.5449 197.012 82.2911C199.505 86.0372 199.754 86.6616 201.5 89.5336" stroke="#222B41" stroke-width="3.68825" stroke-miterlimit="10"/>
<path d="M210.728 116.381C210.728 116.381 219.331 132.24 220.578 152.219C221.825 172.199 223.071 183.438 218.083 190.93C213.097 198.422 208.109 207.163 201.874 212.158C195.639 217.153 194.392 218.402 188.159 218.402C181.924 218.402 178.183 215.905 174.443 212.158C170.701 208.412 170.327 201.295 168.208 198.422C164.467 193.428 161.973 194.677 159.48 192.179C157.484 190.181 158.232 189.682 158.232 189.682" stroke="#222B41" stroke-width="3.68825" stroke-miterlimit="10"/>
<path d="M139.529 125.996L142.023 131.491C142.023 131.491 143.27 133.489 139.529 137.235C135.788 140.981 135.788 157.215 135.788 157.215C135.788 157.215 134.541 158.463 134.541 162.21C134.541 164.707 137.035 167.205 139.529 167.205C142.023 167.205 144.516 170.95 150.752 169.701C156.985 168.452 158.232 165.956 159.48 163.459C160.726 160.961 165.713 163.459 169.455 160.961C173.196 158.463 174.443 155.966 173.196 152.219C171.948 148.473 165.713 149.722 164.467 147.225C163.22 144.727 164.467 142.604 164.467 142.604" stroke="#222B41" stroke-width="3.68825" stroke-miterlimit="10"/>
<path d="M171.948 138.484C173.944 136.486 178.183 133.614 190.652 134.737C204.368 135.986 209.355 143.479 210.603 149.722C211.85 155.966 210.603 167.205 191.899 179.691C173.196 192.179 158.232 192.179 153.245 187.184C148.257 182.189 149.379 171.825 156.985 168.454C168.208 163.459 173.196 167.205 180.676 157.215C188.782 146.351 175.689 139.732 173.196 140.981C170.701 142.23 170.701 139.732 171.948 138.484Z" stroke="#222B41" stroke-width="2.9506" stroke-miterlimit="10"/>
<path d="M154.118 187.934C154.118 187.934 151.997 192.179 145.763 190.93C139.529 189.682 133.294 185.935 132.047 178.443C130.801 170.95 133.294 165.956 135.788 164.707" stroke="#222B41" stroke-width="3.68825" stroke-miterlimit="10"/>
<path d="M150.752 175.945C150.752 175.945 149.504 170.95 145.763 169.701" stroke="#222B41" stroke-width="2.9506" stroke-miterlimit="10"/>
<path d="M160.103 116.381C160.103 116.381 162.098 112.26 168.332 112.26C174.567 112.26 177.684 115.882 177.684 115.882C177.684 115.882 182.049 122.25 178.307 124.748C174.567 127.245 172.073 127.245 172.073 127.245C172.073 127.245 165.216 129.493 162.97 130.866C160.851 132.24 158.232 131.366 158.232 131.366" stroke="#222B41" stroke-width="2.9506" stroke-miterlimit="10"/>
<path d="M367.713 546.067C367.713 546.067 372.701 555.557 378.936 564.298C385.169 573.04 400.132 589.273 406.367 595.517C412.601 601.761 421.33 609.753 421.33 609.753" stroke="#222B41" stroke-width="2.9506" stroke-miterlimit="10"/>
<path d="M352.75 476.888C352.75 476.888 342.774 490.624 344.022 513.101C345.269 535.578 356.366 552.56 362.476 559.679" stroke="#222B41" stroke-width="2.21295" stroke-miterlimit="10"/>
<path d="M401.379 627.984C401.379 627.984 403.001 634.852 407.863 637.099C412.726 639.346 415.095 645.465 420.083 649.212C425.071 652.958 450.009 660.451 461.23 660.451C472.453 660.451 498.637 665.446 526.07 664.197C553.502 662.948 639.539 662.948 661.983 660.451C684.427 657.953 709.365 646.714 709.365 646.714" stroke="#222B41" stroke-width="2.21295" stroke-miterlimit="10"/>
<path d="M713.105 596.765C716.846 594.268 724.328 589.273 740.537 589.273C755.5 589.273 765.101 594.892 767.97 596.765C771.711 599.263 771.711 600.512 771.711 601.011C771.711 611.001 771.711 661.825 771.711 661.825C771.711 661.825 771.711 664.322 767.97 666.818C764.228 669.316 757.995 673.062 740.537 673.062C726.821 673.062 717.47 669.817 713.105 666.818C709.365 664.322 709.365 661.825 709.365 661.825V601.011C709.365 601.011 710.238 598.764 713.105 596.765Z" stroke="#222B41" stroke-width="2.9506" stroke-miterlimit="10"/>
<path d="M753.007 596.765C753.007 596.765 748.019 594.892 740.537 594.892C733.056 594.892 724.328 596.765 720.588 599.263C716.846 601.761 716.846 601.761 716.846 603.009C716.846 604.258 723.081 608.878 741.535 608.878C760.488 608.878 764.228 604.258 764.228 604.258" stroke="#222B41" stroke-width="2.9506" stroke-miterlimit="10"/>
<path d="M771.711 609.253C771.711 609.253 777.946 609.253 782.933 610.502C786.548 611.375 796.649 616.745 796.649 629.232C796.649 640.472 792.907 646.714 785.426 650.46C778.32 653.956 771.711 655.081 771.711 655.081" stroke="#222B41" stroke-width="2.9506" stroke-miterlimit="10"/>
<path d="M771.711 619.618C771.711 619.618 775.326 619.618 778.194 620.242C780.313 620.616 786.049 623.239 786.049 629.107C786.049 634.476 783.93 637.35 779.565 639.223C775.451 640.846 771.711 641.47 771.711 641.47" stroke="#222B41" stroke-width="2.9506" stroke-miterlimit="10"/>
<path d="M784.179 610.502C784.179 610.502 789.167 605.507 792.907 591.77C796.649 578.035 797.895 568.045 797.895 568.045C797.895 568.045 807.87 560.552 810.365 535.578C812.858 510.604 810.365 498.366 810.365 498.366" stroke="#222B41" stroke-width="2.21295" stroke-miterlimit="10"/>
<path d="M803.008 448.543C803.008 448.543 797.895 428.188 786.674 413.203C775.451 398.219 776.698 388.228 769.216 375.742C761.735 363.254 767.97 347.021 762.982 324.543C757.995 302.067 753.007 298.32 753.007 298.32C753.007 298.32 761.735 272.097 745.525 223.397C729.316 174.696 691.909 142.23 620.835 143.479C569.459 143.479 564.932 152.219 564.932 152.219C564.932 152.219 532.513 150.971 513.809 179.691C495.106 208.412 491.905 248.497 491.905 248.497" stroke="#222B41" stroke-width="2.21295" stroke-miterlimit="10"/>
<path d="M647.02 269.6C647.02 269.6 670.711 283.336 670.711 310.808C670.711 338.28 661.983 349.517 661.983 349.517" stroke="#222B41" stroke-width="2.21295" stroke-miterlimit="10"/>
<path d="M678.193 327.041C678.193 327.041 679.439 342.026 675.698 349.517C671.958 357.01 665.474 360.132 665.474 360.132" stroke="#222B41" stroke-width="2.21295" stroke-miterlimit="10"/>
<path d="M565.971 546.817C565.971 546.817 592.156 559.303 630.811 556.806C669.463 554.31 684.427 544.319 684.427 544.319" stroke="#222B41" stroke-width="2.21295" stroke-miterlimit="10"/>
<path d="M628.316 568.045C628.316 568.045 641.783 569.294 652.007 566.796C662.232 564.299 669.463 559.303 669.463 559.303" stroke="#222B41" stroke-width="2.21295" stroke-miterlimit="10"/>
<path d="M723.081 581.782C723.081 581.782 716.846 575.538 716.846 574.913C716.846 574.289 724.328 571.791 724.328 569.294C724.328 566.796 715.6 564.299 715.6 561.801C715.6 559.303 723.705 559.928 723.455 557.181C723.206 554.433 713.105 553.061 713.105 549.315C713.105 545.568 723.081 545.568 723.081 543.071C723.081 540.573 716.846 537.701 716.846 534.08C716.846 530.459 723.081 528.085 723.081 526.836" stroke="#222B41" stroke-width="2.9506" stroke-miterlimit="10"/>
<path d="M739.789 581.782C739.789 581.782 733.181 576.786 733.181 573.04C733.181 569.294 743.157 572.042 743.157 568.045C743.157 564.05 731.934 565.547 731.934 561.801C731.934 558.055 741.036 559.928 741.41 557.181C741.909 554.31 731.934 552.56 731.934 548.44" stroke="#222B41" stroke-width="2.9506" stroke-miterlimit="10"/>
<path d="M754.254 569.294C754.254 569.294 756.747 565.547 756.747 563.05C756.747 560.552 748.767 561.176 748.393 557.181C748.019 553.061 756.747 554.433 756.747 551.311C756.747 548.189 748.767 548.189 748.393 544.445C748.019 540.698 756.747 543.196 756.747 538.575C756.747 535.703 752.508 535.204 751.76 530.708" stroke="#222B41" stroke-width="2.9506" stroke-miterlimit="10"/>
<path d="M243.022 471.893C243.022 471.893 243.022 475.639 250.503 481.883C257.985 488.127 260.478 485.629 260.478 485.629C260.478 485.629 265.591 479.385 264.843 471.893" stroke="#222B41" stroke-width="4.05707" stroke-miterlimit="10"/>
<path d="M344.022 499.49C344.022 499.49 339.408 499.49 333.298 501.363C329.307 502.612 324.819 504.61 320.456 508.106C312.35 514.475 305.493 525.464 302.375 530.958C301.253 533.08 299.506 532.831 297.887 530.583C292.774 523.714 281.925 508.981 278.185 504.234C273.197 497.992 260.728 485.504 260.728 485.504" stroke="#222B41" stroke-width="4.05707" stroke-miterlimit="10"/>
<path d="M309.108 474.39C309.108 474.39 311.602 479.385 320.33 488.127C329.059 496.867 333.173 501.363 333.173 501.363" stroke="#222B41" stroke-width="2.9506" stroke-miterlimit="10"/>
<path d="M400.132 377.989L413.848 446.918" stroke="#222B41" stroke-width="3.31942" stroke-miterlimit="10"/>
<path d="M396.392 479.011L196.887 468.146C196.887 468.146 194.392 468.146 191.899 465.65C189.404 463.153 188.159 460.655 188.159 460.655L139.529 322.046C139.529 322.046 137.035 318.675 139.529 315.428C142.023 312.181 145.763 312.057 145.763 312.057L380.181 302.067C380.181 302.067 382.676 302.067 385.169 304.564C387.664 307.062 387.664 312.057 387.664 312.057L393.773 343.275" stroke="#222B41" stroke-width="4.05707" stroke-miterlimit="10"/>
<path d="M389.783 345.773L382.8 312.057C382.8 312.057 381.554 308.31 377.813 307.062C374.072 305.813 140.901 317.052 140.901 317.052C140.901 317.052 137.16 317.052 139.654 322.046" stroke="#222B41" stroke-width="2.21295" stroke-miterlimit="10"/>
<path d="M411.978 452.538L397.265 381.861" stroke="#222B41" stroke-width="2.9506" stroke-miterlimit="10"/>
<path d="M504.872 335.782C504.872 335.782 501.132 349.517 493.65 354.513C486.169 359.508 479.186 360.132 479.186 360.132" stroke="#222B41" stroke-width="2.9506" stroke-miterlimit="10"/>
<path d="M492.404 355.761C492.404 355.761 489.909 368.249 487.416 375.741C484.922 383.233 481.181 385.731 481.181 385.731C481.181 385.731 480.807 388.354 479.186 388.354C477.441 388.228 474.946 385.731 473.7 384.482C472.453 383.233 471.206 385.731 457.49 383.233C443.774 380.736 426.318 369.498 417.588 369.498C408.86 369.498 406.99 369.498 406.99 369.498" stroke="#222B41" stroke-width="2.9506" stroke-miterlimit="10"/>
<path d="M383.922 374.493C378.934 374.493 377.688 380.736 377.688 380.736L375.194 388.228C375.194 388.228 372.701 389.477 371.453 384.482C370.206 379.487 367.713 365.752 368.96 362.005C370.206 358.259 377.688 348.269 381.429 347.02C385.169 345.773 387.664 345.773 387.664 345.773C387.664 345.773 389.16 345.647 391.404 344.524C393.897 343.275 402.627 343.275 402.627 343.275C402.627 343.275 407.613 344.524 407.613 348.269C407.613 352.015 406.367 359.508 406.367 362.005C406.367 364.503 406.616 365.002 406.616 365.002" stroke="#222B41" stroke-width="2.9506" stroke-miterlimit="10"/>
<path d="M382.676 363.254C385.169 363.254 386.416 365.752 385.169 370.747C383.922 375.742 382.676 380.736 383.922 383.233C385.169 385.731 387.664 391.975 388.909 394.472C390.157 396.97 391.903 394.846 392.651 393.224C393.897 390.726 393.897 384.482 397.639 380.736C401.379 376.991 403.873 374.493 405.12 371.996C406.367 369.498 406.865 368.374 406.616 365.877C406.367 363.254 408.86 362.005 410.108 355.761C411.355 349.517 410.108 341.527 407.613 340.777C405.12 340.028 402.625 339.529 401.379 340.777C400.132 342.026 399.883 343.275 399.883 343.275C399.883 343.275 397.015 343.025 398.885 339.529C400.132 337.031 402.625 335.782 407.613 335.782C412.601 335.782 418.836 337.031 426.316 340.777C433.799 344.524 452.502 348.269 458.737 348.269" stroke="#222B41" stroke-width="2.9506" stroke-miterlimit="10"/>
<path d="M453.75 324.543C453.75 324.543 452.502 330.787 452.502 337.031C452.502 343.275 453.75 348.269 453.75 348.269" stroke="#222B41" stroke-width="2.9506" stroke-miterlimit="10"/>
<path d="M332.55 304.065C332.55 304.065 326.565 285.834 324.071 275.843C321.578 265.853 319.083 252.617 319.083 252.617" stroke="#222B41" stroke-width="4.05707" stroke-miterlimit="10"/>
<path d="M329.059 295.823C329.059 295.823 324.071 297.071 319.083 299.569C314.095 302.067 311.602 304.938 311.602 304.938" stroke="#222B41" stroke-width="4.05707" stroke-miterlimit="10"/>
<path d="M306.372 305.318C306.372 305.318 279.182 284.585 275.441 280.839C271.701 277.092 269.956 278.341 269.582 278.341C269.208 278.341 257.985 295.823 257.985 295.823C257.985 295.823 256.738 298.32 257.985 299.569C260.478 302.067 269.208 306.811 269.208 306.811" stroke="#222B41" stroke-width="4.05707" stroke-miterlimit="10"/>
<path d="M259.232 293.325C254.245 294.574 250.504 293.325 250.504 293.325C250.504 293.325 246.762 295.823 243.022 297.071C239.281 298.32 233.047 304.564 233.047 304.564C233.047 304.564 231.799 307.062 230.553 305.813C229.306 304.564 229.306 292.076 230.553 290.827C231.799 289.579 239.281 277.092 243.022 275.843C246.762 274.595 250.628 275.843 250.628 275.843" stroke="#222B41" stroke-width="4.05707" stroke-miterlimit="10"/>
<path d="M233.046 285.834C233.046 285.834 229.306 285.834 225.566 288.33C221.825 290.827 221.825 294.574 219.331 295.823C216.838 297.071 221.825 278.341 221.825 278.341C221.825 278.341 240.529 260.858 243.022 260.858C245.516 260.858 246.762 259.609 252.997 264.604C259.232 269.6 265.466 273.346 266.713 275.843C267.96 278.341 269.582 278.341 269.582 278.341" stroke="#222B41" stroke-width="4.05707" stroke-miterlimit="10"/>
<path d="M294.145 92.2806C292.899 92.2806 289.781 96.0269 291.652 99.7731C292.899 102.27 294.27 102.77 296.639 102.27C298.135 101.896 299.383 100.772 299.132 98.5243C298.883 95.7771 298.883 96.901 296.639 98.5243C295.143 99.6482 293.771 100.273 292.899 98.5243C291.652 96.0269 295.392 92.2806 294.145 92.2806Z" stroke="#222B41" stroke-width="3.31942" stroke-miterlimit="10"/>
<path d="M294.145 92.2806C292.899 92.2806 289.781 96.0269 291.652 99.7731C292.899 102.27 294.27 102.77 296.639 102.27C298.135 101.896 299.383 100.772 299.132 98.5243C298.883 95.7771 298.883 96.901 296.639 98.5243C295.143 99.6482 293.771 100.273 292.899 98.5243C291.652 96.0269 295.392 92.2806 294.145 92.2806Z" fill="#222B41" stroke="#222B41" stroke-width="3.31942" stroke-miterlimit="10"/>
<path d="M228.059 367.001H238.533C238.533 367.001 240.529 365.752 245.516 374.493C248.634 379.988 255.616 391.724 260.48 399.842C263.347 404.712 265.467 408.208 265.467 408.208C265.467 408.208 267.96 410.83 264.22 411.455C260.48 411.954 257.237 411.455 257.237 411.455C257.237 411.455 254.245 411.954 251.75 406.96C249.257 401.965 226.813 369.498 226.813 368.249C226.813 367.001 228.059 367.001 228.059 367.001Z" fill="#222B41"/>
<path d="M286.664 368.249L258.608 402.089L264.344 409.707L291.652 373.244L286.664 368.249Z" stroke="#222B41" stroke-width="2.9506" stroke-miterlimit="10"/>
<path d="M256.738 373.244C255.49 370.747 253.122 366.875 258.11 367C263.098 367.126 266.339 367 269.082 367C271.826 367 271.701 369.498 274.194 374.493C276.688 379.487 290.404 404.586 291.652 407.708C292.899 410.705 291.652 410.705 289.157 410.705C286.664 410.705 280.429 410.705 279.182 409.456C277.936 408.208 276.814 405.336 273.571 400.591C270.33 395.846 256.738 373.244 256.738 373.244Z" fill="#222B41"/>
<path d="M286.664 371.996C282.923 368.249 284.171 365.752 286.664 365.752C289.157 365.752 294.519 365.752 296.888 365.752C299.258 365.752 300.254 368.249 303.497 371.996C306.738 375.742 312.973 383.233 306.74 383.233C300.505 383.233 302.998 383.233 299.258 383.233C295.517 383.233 295.517 381.984 293.023 379.487C290.529 376.991 286.664 371.996 286.664 371.996Z" fill="#222B41"/>
<path d="M329.145 361.432C329.145 361.432 326.653 363.426 323.767 356.738C320.879 350.05 320.783 342.765 320.783 342.765C320.783 342.765 317.694 341.965 315.702 339.469C313.711 336.971 314.492 335.724 315.702 334.55C316.912 333.376 319.541 333.535 319.839 334.933C320.138 336.329 321.734 330.145 330.105 328.358C338.477 326.57 340.467 329.067 340.467 329.067C340.467 329.067 339.871 326.273 342.661 325.677C345.451 325.081 348.838 327.279 348.039 330.371C347.591 332.367 346.944 332.067 345.548 332.365C345.548 332.365 347.838 336.258 349.33 343.244C350.821 350.23 352.516 351.328 350.023 353.322C347.531 355.314 347.272 356.831 340.724 358.959C334.177 361.089 329.145 361.432 329.145 361.432Z" stroke="#222B41" stroke-width="2.02853" stroke-miterlimit="10"/>
<path d="M330.054 356.125C330.054 356.125 334.817 356.569 335.076 355.052C335.337 353.537 335.037 352.139 331.95 351.339C328.86 350.537 327.466 350.835 327.466 350.835" stroke="#222B41" stroke-width="2.02853" stroke-miterlimit="10"/>
<path d="M342.365 345.461C342.365 345.461 337.082 350.096 338.594 352.403C339.968 354.739 342.581 353.304 343.618 351.33" stroke="#222B41" stroke-width="2.02853" stroke-miterlimit="10"/>
<path d="M324.721 337.98C324.721 337.98 322.587 341.651 325.974 343.849C329.361 346.047 332.71 343.287 333.019 341.321C333.019 341.321 333.151 336.472 330.063 335.671C326.974 334.87 324.721 337.98 324.721 337.98Z" stroke="#222B41" stroke-width="2.02853" stroke-miterlimit="10"/>
<path d="M333.748 339.266C332.602 337.32 333.949 333.38 336.739 332.784C339.53 332.189 340.696 333.547 341.521 334.686C342.776 336.462 342.417 338.876 339.925 340.87C337.433 342.862 334.893 341.214 333.748 339.266Z" stroke="#222B41" stroke-width="2.02853" stroke-miterlimit="10"/>
<path d="M331.066 343.785C331.066 343.785 329.829 347.555 332.738 347.518C334.192 347.498 335.528 346.922 335.08 344.826C334.583 343.18 333.656 344.984 333.656 344.984C333.656 344.984 332.242 343.825 335.031 343.229C337.821 342.633 336.775 343.88 336.775 343.88C336.775 343.88 335.031 343.229 335.419 345.045C335.748 346.582 337.203 346.564 338.427 346.156C338.427 346.156 340.432 345.29 340.132 343.894C339.834 342.496 338.509 341.757 338.509 341.757" stroke="#222B41" stroke-width="2.02853" stroke-miterlimit="10"/>
<path d="M339.408 337.766C340.409 337.553 341.049 336.566 340.834 335.563C340.62 334.559 339.635 333.92 338.632 334.134C337.63 334.347 336.992 335.334 337.207 336.337C337.42 337.34 338.407 337.98 339.408 337.766Z" fill="#222B41"/>
<path d="M328.066 343.402C329.145 343.172 329.832 342.11 329.602 341.029C329.371 339.949 328.309 339.259 327.232 339.49C326.153 339.721 325.464 340.783 325.695 341.862C325.926 342.943 326.987 343.633 328.066 343.402Z" fill="#222B41"/>
<path d="M198.009 419.572C199.006 415.7 200.877 413.079 204.867 411.081C208.858 409.082 214.842 408.832 217.709 410.206C220.578 411.58 223.944 413.077 225.44 416.824C226.937 420.57 225.691 423.068 226.065 424.442C226.439 425.816 228.807 426.315 229.929 429.936C231.053 433.557 231.176 441.05 231.053 442.673C230.927 444.296 230.553 449.042 229.929 450.665C229.306 452.288 225.066 456.034 221.326 456.284C217.586 456.533 216.213 455.284 214.842 454.037C213.471 452.788 209.355 448.042 208.732 447.169" stroke="#222B41" stroke-width="2.02853" stroke-miterlimit="10"/>
<path d="M220.827 429.561C222.067 429.561 223.071 428.947 223.071 428.188C223.071 427.43 222.067 426.814 220.827 426.814C219.587 426.814 218.583 427.43 218.583 428.188C218.583 428.947 219.587 429.561 220.827 429.561Z" fill="#222B41"/>
<path d="M207.859 430.935C209.099 430.935 210.103 430.264 210.103 429.437C210.103 428.608 209.099 427.938 207.859 427.938C206.619 427.938 205.615 428.608 205.615 429.437C205.615 430.264 206.619 430.935 207.859 430.935Z" fill="#222B41"/>
<path d="M202.372 425.939C202.372 425.939 202.748 422.443 205.241 422.569C207.61 422.694 209.355 423.692 209.854 424.567C210.229 425.315 210.977 426.814 211.476 426.814" stroke="#222B41" stroke-width="2.02853" stroke-miterlimit="10"/>
<path d="M215.216 426.315C215.216 426.315 216.338 425.44 216.712 424.816C216.961 424.191 218.209 421.445 220.204 421.694C222.199 421.944 223.445 423.943 223.445 423.943" stroke="#222B41" stroke-width="2.02853" stroke-miterlimit="10"/>
<path d="M217.709 430.061C217.709 430.061 217.709 429.437 218.583 429.187C219.456 428.938 220.827 429.686 222.697 429.187C223.321 429.061 224.818 428.562 224.818 427.564C224.692 426.689 224.318 426.19 224.318 426.19" stroke="#222B41" stroke-width="2.21295" stroke-miterlimit="10"/>
<path d="M200.004 424.442C200.004 424.442 200.627 428.063 201.25 428.562C201.874 428.938 201.874 432.183 201.5 433.058C201.126 434.057 202.746 441.424 204.493 441.674" stroke="#222B41" stroke-width="2.02853" stroke-miterlimit="10"/>
<path d="M202.746 429.811C202.746 429.811 204.244 428.813 204.742 429.437C205.241 430.061 206.114 430.935 206.862 430.935C207.734 430.809 210.103 430.686 210.229 429.437" stroke="#222B41" stroke-width="2.21295" stroke-miterlimit="10"/>
<path d="M212.722 432.058C212.722 432.058 212.473 434.806 212.722 435.679C212.972 436.554 214.593 437.178 214.593 437.178C214.593 437.178 214.842 438.427 216.338 438.427C217.835 438.427 218.583 436.928 218.583 436.928C218.583 436.928 220.329 436.679 220.204 435.18C220.204 433.806 218.583 433.058 218.583 433.058" stroke="#222B41" stroke-width="2.02853" stroke-miterlimit="10"/>
<path d="M216.464 439.426C216.464 439.426 216.089 442.174 218.334 442.923C220.578 443.671 224.069 441.674 224.069 441.674C224.069 441.674 227.81 439.926 227.81 438.801C227.81 437.678 227.81 434.182 227.81 434.182C227.81 434.182 226.813 439.801 224.444 439.551C222.074 439.302 220.204 440.3 219.331 438.678C218.457 437.053 217.212 438.678 217.212 438.678L216.464 439.426Z" stroke="#222B41" stroke-width="2.02853" stroke-miterlimit="10"/>
<path d="M204.493 436.055C204.119 436.055 204.618 440.05 206.488 441.424C208.358 442.923 211.102 443.548 213.221 442.923C215.341 442.299 215.839 441.175 215.839 440.3C215.839 439.426 214.218 438.302 214.218 438.302C214.218 438.302 214.094 439.052 211.102 439.426C208.108 439.801 207.111 440.05 206.363 438.801C205.615 437.803 204.867 436.055 204.493 436.055Z" stroke="#222B41" stroke-width="2.02853" stroke-miterlimit="10"/>
<path d="M212.598 443.548C212.598 443.548 213.969 444.047 214.343 444.671C214.717 445.296 215.964 446.045 217.212 445.67C218.457 445.421 220.578 445.421 221.451 444.047C222.448 442.798 222.323 442.423 222.323 442.423" stroke="#222B41" stroke-width="2.02853" stroke-miterlimit="10"/>
<path d="M335.791 427.188L334.171 425.939L322.824 421.195L311.602 413.578C311.602 413.578 311.228 411.455 312.724 411.705C314.344 411.954 326.939 413.203 326.939 413.203C326.939 413.203 330.306 410.081 331.926 408.208C333.547 406.334 335.294 404.212 335.294 404.212" stroke="#222B41" stroke-width="2.02853" stroke-miterlimit="10"/>
<path d="M335.294 421.57L336.541 428.938L340.53 431.434C340.53 431.434 342.277 432.434 343.896 432.183C345.643 431.935 346.889 430.31 346.889 430.31C346.889 430.31 346.515 427.689 344.396 427.689C342.277 427.689 342.774 427.689 342.774 427.689L343.773 420.821L348.012 416.575L348.51 403.463L349.632 398.219L355.119 396.346C355.119 396.346 358.237 394.846 358.111 391.225C357.986 387.604 357.737 385.357 355.119 385.106C352.501 384.858 345.892 385.106 345.892 385.106C345.892 385.106 341.527 385.106 341.153 390.352C340.779 395.596 340.779 398.094 340.405 399.217C340.031 400.341 338.411 401.965 338.411 401.965" stroke="#222B41" stroke-width="2.02853" stroke-miterlimit="10"/>
<path d="M342.774 403.588L334.42 400.092L329.433 396.471L326.939 398.219L327.562 399.716H329.184L334.046 402.214C334.046 402.214 336.664 406.334 337.912 407.583C339.159 408.708 338.785 410.081 338.785 410.081" stroke="#222B41" stroke-width="2.02853" stroke-miterlimit="10"/>
<path d="M347.263 418.323L350.131 419.321C350.131 419.321 352.002 417.074 353.249 417.448C354.496 417.824 355.244 418.822 354.496 420.445C353.747 422.069 352.002 424.442 352.002 424.442C352.002 424.442 349.509 423.692 348.136 423.817C346.765 423.943 343.522 423.943 343.522 423.943" stroke="#222B41" stroke-width="2.02853" stroke-miterlimit="10"/>
<path d="M348.385 411.58L352.127 409.957L354.121 411.58L354.869 409.957L356.741 410.83C356.741 410.83 356.989 408.708 356.864 408.583C356.741 408.333 354.121 408.333 354.121 408.333L348.635 406.336" stroke="#222B41" stroke-width="2.02853" stroke-miterlimit="10"/>
<path d="M346.017 385.232C346.017 385.232 344.145 387.479 344.895 392.724C345.643 397.968 349.009 401.965 349.009 401.965" stroke="#222B41" stroke-width="2.02853" stroke-miterlimit="10"/>
<path d="M345.144 390.976C345.144 390.976 348.759 392.1 350.505 390.102C352.251 388.103 350.505 385.232 350.505 385.232" stroke="#222B41" stroke-width="2.02853" stroke-miterlimit="10"/>
<path d="M357.863 393.598L355.992 394.721L353.498 393.598L351.628 395.097L349.757 394.347L348.51 395.846C348.51 395.846 347.637 395.222 347.263 394.097" stroke="#222B41" stroke-width="2.02853" stroke-miterlimit="10"/>
<path d="M349.757 389.851C350.653 389.851 351.379 389.125 351.379 388.228C351.379 387.331 350.653 386.606 349.757 386.606C348.862 386.606 348.136 387.331 348.136 388.228C348.136 389.125 348.862 389.851 349.757 389.851Z" fill="#222B41"/>
<path d="M174.441 339.778L170.577 340.527L175.939 351.766H179.18" stroke="#222B41" stroke-width="2.02853" stroke-miterlimit="10"/>
<path d="M185.664 333.535L181.675 354.638" stroke="#222B41" stroke-width="2.02853" stroke-miterlimit="10"/>
<path d="M189.03 337.904L192.772 337.156L196.013 349.394L191.525 350.392" stroke="#222B41" stroke-width="2.02853" stroke-miterlimit="10"/>
<path d="M166.587 338.03C166.587 338.03 169.704 329.789 180.179 329.413C190.652 329.039 201.001 333.41 200.004 344.148C199.006 354.888 193.146 359.259 184.417 360.383C175.689 361.506 172.945 357.261 172.945 357.261" stroke="#222B41" stroke-width="2.02853" stroke-miterlimit="10"/>
<path d="M194.268 356.636C194.268 356.636 201.001 361.007 204.119 355.387C207.236 349.768 200.004 346.396 200.004 346.396" stroke="#222B41" stroke-width="2.02853" stroke-miterlimit="10"/>
<path d="M210.457 360.444C211.035 358.819 210.397 357.11 209.035 356.624C207.673 356.138 206.101 357.061 205.522 358.685C204.946 360.31 205.582 362.02 206.944 362.506C208.306 362.992 209.88 362.068 210.457 360.444Z" stroke="#222B41" stroke-width="2.02853" stroke-miterlimit="10"/>
<path d="M836.3 630.481C836.3 630.481 838.296 613.998 840.415 606.631C842.659 599.263 848.52 592.52 849.143 588.274C849.891 584.154 854.007 571.916 860.117 574.538C866.226 577.286 862.61 589.149 862.61 589.149" stroke="#222B41" stroke-width="2.21295" stroke-miterlimit="10"/>
<path d="M844.155 631.106C844.155 631.106 849.767 609.003 853.382 602.385C856.999 595.642 861.488 591.77 866.6 584.902C871.712 578.035 879.069 562.176 881.438 560.928C883.931 559.679 886.301 571.916 880.814 582.156C875.329 592.395 872.46 592.395 872.46 592.395C872.46 592.395 876.326 598.514 871.712 601.886C867.098 605.257 862.735 608.005 861.239 610.876C859.743 613.748 866.101 604.883 870.216 609.878C874.33 614.871 869.468 619.242 863.732 623.364C857.996 627.485 857.497 629.982 857.497 632.104" stroke="#222B41" stroke-width="2.21295" stroke-miterlimit="10"/>
<path d="M850.016 631.106C850.016 631.106 853.382 613.998 856.999 605.881C860.614 597.764 861.613 598.639 868.22 590.897C874.829 583.154 875.078 580.282 875.078 580.282" stroke="#222B41" stroke-width="2.21295" stroke-miterlimit="10"/>
<path d="M841.412 627.984C841.412 627.984 843.781 611.001 850.016 599.263C856.251 587.525 854.007 591.521 854.007 591.521" stroke="#222B41" stroke-width="2.21295" stroke-miterlimit="10"/>
<path d="M160.727 662.698C160.727 662.698 159.605 651.584 147.26 648.838C134.915 646.09 88.9046 639.597 70.8245 641.096C52.7443 642.594 6.35939 647.589 2.1199 655.33C-2.11958 663.073 5.98532 662.698 13.2174 662.698C20.4494 662.698 15.9605 671.565 38.1555 667.319C60.3504 663.073 53.8666 666.569 53.8666 666.569C53.8666 666.569 50.0011 675.435 71.5725 671.565C93.1441 667.693 98.8799 666.943 98.8799 666.943C98.8799 666.943 93.5181 674.687 113.469 674.062C133.419 673.438 133.793 670.441 141.898 670.065C150.004 669.691 160.353 671.565 161.475 673.937" stroke="#222B41" stroke-width="2.58177" stroke-miterlimit="10"/>
<path d="M150.378 664.696C150.378 664.696 136.162 655.455 112.721 655.829C89.2786 656.205 88.1565 661.2 83.5428 655.829" stroke="#222B41" stroke-width="2.58177" stroke-miterlimit="10"/>
<path d="M160.609 634.184C160.609 634.184 153.494 622.74 131.673 618.119C109.853 613.499 103.618 610.377 80.5503 610.377C57.4824 610.377 43.2677 612.25 43.2677 616.87C43.2677 616.87 29.9258 618.369 28.9282 621.74C27.9308 625.112 35.911 626.985 45.7615 626.61C55.7368 626.236 57.2331 626.485 57.2331 626.485C57.2331 626.485 54.1157 629.982 58.854 632.603C63.4676 635.226 74.0662 628.858 78.0564 629.107C82.0466 629.358 75.0638 631.605 75.9366 634.102C76.8096 636.725 79.802 639.098 90.4008 635.85C101 632.48 112.97 639.223 116.087 643.968" stroke="#222B41" stroke-width="2.58177" stroke-miterlimit="10"/>
<path d="M156.736 643.468C156.736 643.468 152.746 645.59 146.262 641.595C139.778 637.598 134.292 630.356 127.309 630.107C120.451 629.857 115.588 630.231 111.848 627.109" stroke="#222B41" stroke-width="2.58177" stroke-miterlimit="10"/>
<path d="M170.078 668.817C170.078 668.817 163.843 658.203 162.721 646.839C161.599 635.476 156.736 617.87 154.492 609.377C152.248 600.886 145.639 580.157 154.866 571.791C164.093 563.425 167.209 562.3 167.209 562.3C167.209 562.3 163.095 550.937 169.704 541.822C176.313 532.706 179.305 531.706 179.18 529.459C179.055 527.212 180.302 519.719 181.424 519.22C182.547 518.721 193.395 525.963 196.513 540.199C199.63 554.433 194.268 561.302 194.268 561.302C194.268 561.302 196.887 589.772 192.273 594.767C187.534 599.762 187.534 600.886 187.534 600.886C187.534 600.886 191.026 611.25 188.282 629.982C185.664 648.587 180.428 669.566 180.428 669.566" stroke="#222B41" stroke-width="2.58177" stroke-miterlimit="10"/>
<path d="M182.547 660.825C182.547 660.825 197.51 651.834 203.994 643.343C210.477 634.852 215.59 624.362 228.184 618.244C240.778 612.125 244.269 612.499 244.269 612.499M189.156 627.234C189.156 627.234 208.732 611.875 215.964 607.255C223.196 602.634 229.805 603.509 229.805 603.509C229.805 603.509 244.768 596.64 247.136 595.642C249.506 594.643 270.828 594.767 272.574 596.266C274.319 597.764 272.574 598.764 269.331 601.635C266.09 604.507 257.362 612.499 257.237 617.369C257.112 622.239 258.608 623.114 250.254 629.732C241.9 636.35 240.155 637.473 240.155 637.473C240.155 637.473 242.025 644.966 235.541 649.337C229.057 653.708 218.583 653.333 218.583 653.333C218.583 653.333 215.715 658.078 201.25 663.698C186.786 669.316 184.999 669.107 184.999 669.107L189.156 627.234Z" stroke="#222B41" stroke-width="2.58177" stroke-miterlimit="10"/>
<path d="M173.695 667.444C173.695 667.444 170.078 631.106 169.953 612.624C169.829 594.143 175.814 585.526 174.443 580.282" stroke="#222B41" stroke-width="2.58177" stroke-miterlimit="10"/>
<path d="M730.937 629.233H734.552C734.552 629.233 735.3 628.858 737.047 631.855C738.169 633.728 740.537 637.849 742.284 640.72C743.281 642.468 744.029 643.594 744.029 643.594C744.029 643.594 744.902 644.467 743.531 644.717C742.284 644.966 741.161 644.717 741.161 644.717C741.161 644.717 740.163 644.966 739.291 643.218C738.418 641.47 730.563 630.231 730.563 629.732C730.563 629.233 730.937 629.233 730.937 629.233Z" fill="#222B41"/>
<path d="M751.386 630.98L740.787 640.472L742.658 642.969L753.63 632.728L751.386 630.98Z" stroke="#222B41" stroke-width="2.9506" stroke-miterlimit="10"/>
<path d="M740.913 631.48C740.539 630.606 739.665 629.232 741.41 629.232C743.157 629.232 744.279 629.232 745.276 629.232C746.149 629.232 746.149 630.107 747.022 631.855C747.894 633.603 752.633 642.345 753.132 643.468C753.506 644.467 753.132 644.467 752.259 644.467C751.386 644.467 749.267 644.467 748.767 644.093C748.393 643.717 747.894 642.719 746.772 640.971C745.775 639.346 740.913 631.48 740.913 631.48Z" fill="#222B41"/>
<path d="M751.386 630.98C750.138 629.732 750.512 628.858 751.386 628.858C752.259 628.858 754.129 628.858 754.877 628.858C755.625 628.858 755.999 629.732 757.121 630.98C758.244 632.229 760.364 634.852 758.244 634.852C756.125 634.852 756.996 634.852 755.625 634.852C754.378 634.852 754.378 634.476 753.506 633.603C752.633 632.728 751.386 630.98 751.386 630.98Z" fill="#222B41"/>
<path d="M360.855 599.762C360.855 599.762 374.197 618.119 377.438 622.115C380.806 626.111 392.9 636.85 392.9 636.85" stroke="#222B41" stroke-width="2.21295" stroke-miterlimit="10"/>
<path d="M263.97 479.011C263.97 479.011 278.185 493.122 284.294 501.363C290.404 509.605 304.12 527.711 304.12 527.711" stroke="#222B41" stroke-width="2.21295" stroke-miterlimit="10"/>
</svg>
