<svg width="128" height="128" viewBox="0 0 128 128" fill="none" xmlns="http://www.w3.org/2000/svg">
<path d="M24.8788 74.059C30.4343 74.059 34.9378 69.5554 34.9378 64C34.9378 58.4445 30.4343 53.941 24.8788 53.941C19.3234 53.941 14.8198 58.4445 14.8198 64C14.8198 69.5554 19.3234 74.059 24.8788 74.059Z" fill="#2F3435"/>
<path d="M24.8778 110.149C30.4333 110.149 34.9368 105.645 34.9368 100.09C34.9368 94.5346 30.4333 90.031 24.8778 90.031C19.3224 90.031 14.8188 94.5346 14.8188 100.09C14.8188 105.645 19.3224 110.149 24.8778 110.149Z" fill="#2F3435"/>
<path d="M24.8788 37.968C30.4337 37.968 34.9368 33.4649 34.9368 27.91C34.9368 22.3551 30.4337 17.852 24.8788 17.852C19.3239 17.852 14.8208 22.3551 14.8208 27.91C14.8208 33.4649 19.3239 37.968 24.8788 37.968Z" fill="#2F3435"/>
<path d="M48.6816 27.91H113.183" stroke="#2F3435" stroke-width="14.3337" stroke-miterlimit="10"/>
<path d="M48.6816 64H113.183" stroke="#2F3435" stroke-width="14.3337" stroke-miterlimit="10"/>
<path d="M48.6816 100.09H113.183" stroke="#2F3435" stroke-width="14.3337" stroke-miterlimit="10"/>
</svg>
