<svg width="18" height="18" viewBox="0 0 18 18" fill="none" xmlns="http://www.w3.org/2000/svg">
<path d="M6.92 12.5901L4.33 10.0001H14V8.00012H4.33L6.92 5.41012L5.5 4.00012L0.5 9.00012L5.5 14.0001L6.92 12.5901ZM2 0.00012207C1.46957 0.00012207 0.960859 0.210836 0.585787 0.585908C0.210714 0.960981 0 1.46969 0 2.00012V6.67012L2 4.67012V2.00012H16V16.0001H2V13.3301L0 11.3301V16.0001C0 16.5306 0.210714 17.0393 0.585787 17.4143C0.960859 17.7894 1.46957 18.0001 2 18.0001H16C17.11 18.0001 18 17.1001 18 16.0001V2.00012C18 0.890122 17.11 0.00012207 16 0.00012207H2Z" fill="#A6A6A6"/>
</svg>
