<svg width="36" height="24" viewBox="0 0 36 24" fill="none" xmlns="http://www.w3.org/2000/svg">
<path d="M26.591 0.35142C26.8396 0.0113361 27.0994 0 27.4609 0L31.607 0.0226722C32.1606 0.0226722 32.7594 0.544134 32.5673 1.0996L17.1351 23.4544C16.6945 24.0553 16.1635 23.9986 15.802 23.9986L11.3961 23.9759C11.0684 23.9759 10.6504 23.4431 11.0006 22.933L26.591 0.35142Z" fill="#FCD000"/>
<path d="M16.6082 22.8895C16.9042 23.6034 16.7107 24 16.3919 24H11.2009C10.8594 24 10.5634 23.7734 10.4496 23.4448L0.0447463 1.11048C-0.137395 0.555241 0.261036 0 0.796076 0H5.24715C5.58866 0 5.88465 0.226629 6.02125 0.555241L16.6082 22.8895Z" fill="black"/>
<path d="M30.195 22.8895C30.4873 23.6034 30.2962 24 29.9814 24H24.5618C24.2469 24 23.9321 23.7734 23.8197 23.4448L13.1829 1.11048C12.9918 0.555241 13.3628 0 13.925 0H18.625C18.9735 0 19.2546 0.226629 19.3671 0.555241L30.195 22.8895Z" fill="black"/>
<path d="M35.041 5.2282C35.4282 6.1128 34.9415 6.33962 34.6207 6.33962H30.2403C29.9305 6.33962 29.4106 6.14683 29.2558 5.78391L26.7337 1.11142C26.3908 0.419617 26.6563 0 27.1983 0H31.5234C31.8663 0 32.3309 0.192797 32.5079 0.555709L35.041 5.2282Z" fill="black"/>
</svg>
