<svg width="28" height="28" viewBox="0 0 28 28" fill="none" xmlns="http://www.w3.org/2000/svg">
<path d="M14 23.6C10.6666 23.6 7.71996 21.8933 5.99996 19.3333C6.03996 16.6667 11.3333 15.2 14 15.2C16.6666 15.2 21.96 16.6667 22 19.3333C20.28 21.8933 17.3333 23.6 14 23.6ZM14 4.66666C15.0608 4.66666 16.0782 5.08808 16.8284 5.83823C17.5785 6.58838 18 7.60579 18 8.66666C18 9.72752 17.5785 10.7449 16.8284 11.4951C16.0782 12.2452 15.0608 12.6667 14 12.6667C12.9391 12.6667 11.9217 12.2452 11.1715 11.4951C10.4214 10.7449 9.99996 9.72752 9.99996 8.66666C9.99996 7.60579 10.4214 6.58838 11.1715 5.83823C11.9217 5.08808 12.9391 4.66666 14 4.66666ZM14 0.666656C12.249 0.666656 10.5152 1.01153 8.89751 1.6816C7.27984 2.35166 5.80998 3.33379 4.57187 4.5719C2.07138 7.07238 0.666626 10.4638 0.666626 14C0.666626 17.5362 2.07138 20.9276 4.57187 23.4281C5.80998 24.6662 7.27984 25.6483 8.89751 26.3184C10.5152 26.9884 12.249 27.3333 14 27.3333C17.5362 27.3333 20.9276 25.9286 23.4281 23.4281C25.9285 20.9276 27.3333 17.5362 27.3333 14C27.3333 6.62666 21.3333 0.666656 14 0.666656Z" fill="#A6A6A6"/>
</svg>
