<svg width="24" height="24" viewBox="0 0 24 24" fill="none" xmlns="http://www.w3.org/2000/svg">
<path d="M18.75 7.5H5.25V20.25C5.25 21.0788 5.92125 21.75 6.75 21.75H17.25C18.0788 21.75 18.75 21.0788 18.75 20.25V7.5Z" stroke="#D70000" stroke-miterlimit="10" stroke-linecap="round" stroke-linejoin="round"/>
<path d="M15 5.25H9V3.75C9 2.92125 9.67125 2.25 10.5 2.25H13.5C14.3288 2.25 15 2.92125 15 3.75V5.25Z" stroke="#D70000" stroke-miterlimit="10" stroke-linecap="round" stroke-linejoin="round"/>
<path d="M21 7.5H3V6C3 5.586 3.336 5.25 3.75 5.25H20.25C20.664 5.25 21 5.586 21 6V7.5Z" stroke="#D70000" stroke-miterlimit="10" stroke-linecap="round" stroke-linejoin="round"/>
<path d="M12 11.25V18" stroke="#D70000" stroke-miterlimit="10" stroke-linecap="round" stroke-linejoin="round"/>
<path d="M9 11.25V18" stroke="#D70000" stroke-miterlimit="10" stroke-linecap="round" stroke-linejoin="round"/>
<path d="M15 11.25V18" stroke="#D70000" stroke-miterlimit="10" stroke-linecap="round" stroke-linejoin="round"/>
</svg>
