<svg width="24" height="20" viewBox="0 0 24 20" fill="none" xmlns="http://www.w3.org/2000/svg">
<path d="M1.59766 4.54875H14.7012V5.60148H1.59766C1.44727 5.60148 1.31055 5.66203 1.21094 5.76164C1.11328 5.86125 1.05078 5.99797 1.05078 6.14836V13.8554C1.05078 14.0058 1.11133 14.1425 1.21094 14.2421C1.31055 14.3398 1.44727 14.4023 1.59766 14.4023H14.7012V15.455H1.59766C1.16016 15.455 0.759766 15.2753 0.470703 14.9862L0.46875 14.9804C0.179688 14.6913 0 14.2929 0 13.8534V6.1464C0 5.7089 0.179688 5.30851 0.46875 5.01945L0.470703 5.0175C0.759766 4.72844 1.16016 4.54875 1.59766 4.54875ZM14.0176 10.5507C13.7207 10.5507 13.4805 10.3105 13.4805 10.0136C13.4805 9.71671 13.7207 9.47648 14.0176 9.47648H16.5137V3.55656C16.4375 2.81437 16.209 2.26359 15.8613 1.87687C15.4844 1.455 14.9492 1.20695 14.3008 1.09953C14.0098 1.05266 13.8105 0.777265 13.8594 0.484296C13.9062 0.193281 14.1816 -0.00593803 14.4746 0.0428901C15.3613 0.189374 16.1094 0.544843 16.6602 1.16398C16.8008 1.32023 16.9277 1.49406 17.0391 1.68351C17.1797 1.43937 17.3477 1.22453 17.5391 1.03508C18.1133 0.464765 18.8828 0.154218 19.8027 0.0389838C20.0977 0.00382759 20.3652 0.212812 20.4004 0.507734C20.4355 0.802655 20.2266 1.07023 19.9316 1.10539C19.2441 1.19133 18.6855 1.40617 18.293 1.79484C17.9043 2.17961 17.6582 2.75383 17.5879 3.56047V4.5507H22.4023C22.8398 4.5507 23.2402 4.73039 23.5293 5.01945L23.5312 5.0214C23.8203 5.31047 24 5.71086 24 6.14836V13.8554C24 14.2929 23.8203 14.6933 23.5312 14.9823L23.5293 14.9843C23.2402 15.2734 22.8398 15.453 22.4023 15.453H17.5879V16.4433C17.6582 17.2499 17.9043 17.8261 18.293 18.2089C18.6836 18.5956 19.2422 18.8124 19.9316 18.8984C20.2266 18.9335 20.4355 19.203 20.4004 19.496C20.3652 19.7909 20.0977 19.9999 19.8027 19.9648C18.8848 19.8495 18.1133 19.539 17.5391 18.9687C17.3477 18.7792 17.1797 18.5644 17.0391 18.3202C16.9277 18.5097 16.8008 18.6816 16.6602 18.8398C16.1074 19.4569 15.3594 19.8144 14.4746 19.9609C14.1836 20.0077 13.9082 19.8105 13.8594 19.5194C13.8125 19.2284 14.0098 18.953 14.3008 18.9042C14.9492 18.7968 15.4844 18.5507 15.8613 18.1269C16.209 17.7382 16.4355 17.1874 16.5137 16.4472V10.5546H14.0176V10.5507ZM17.5879 5.59953V9.47453H20.123C20.4199 9.47453 20.6602 9.71476 20.6602 10.0116C20.6602 10.3085 20.4199 10.5487 20.123 10.5487H17.5879V14.3984H22.4023C22.5527 14.3984 22.6895 14.3378 22.7891 14.2382C22.8867 14.1386 22.9492 14.0019 22.9492 13.8515V6.1464C22.9492 5.99601 22.8887 5.85929 22.7891 5.75968C22.6895 5.66203 22.5527 5.59953 22.4023 5.59953H17.5879Z" fill="black"/>
</svg>
