<svg width="17" height="16" viewBox="0 0 17 16" fill="none" xmlns="http://www.w3.org/2000/svg">
<path fill-rule="evenodd" clip-rule="evenodd" d="M6.18359 1.99997C5.12273 1.99997 4.10531 2.4214 3.35517 3.17155C2.60502 3.92169 2.18359 4.93911 2.18359 5.99997C2.18359 7.06084 2.60502 8.07825 3.35517 8.8284C4.10531 9.57855 5.12273 9.99997 6.18359 9.99997C7.24446 9.99997 8.26188 9.57855 9.01202 8.8284C9.76217 8.07825 10.1836 7.06084 10.1836 5.99997C10.1836 4.93911 9.76217 3.92169 9.01202 3.17155C8.26188 2.4214 7.24446 1.99997 6.18359 1.99997ZM0.183594 5.99997C0.183473 5.05568 0.406236 4.12468 0.833765 3.28271C1.26129 2.44074 1.88152 1.71157 2.64399 1.1545C3.40646 0.597426 4.28966 0.228185 5.22174 0.0768059C6.15382 -0.0745733 7.10848 -0.00381595 8.00806 0.283323C8.90764 0.570462 9.72675 1.06587 10.3988 1.72927C11.0708 2.39266 11.5767 3.20531 11.8754 4.10111C12.1742 4.9969 12.2573 5.95056 12.1179 6.88452C11.9786 7.81848 11.6208 8.70637 11.0736 9.47597L15.8906 14.293C16.0728 14.4816 16.1735 14.7342 16.1713 14.9964C16.169 15.2586 16.0638 15.5094 15.8784 15.6948C15.693 15.8802 15.4422 15.9854 15.18 15.9876C14.9178 15.9899 14.6652 15.8891 14.4766 15.707L9.66059 10.891C8.76296 11.5293 7.70694 11.9081 6.60827 11.9861C5.5096 12.0641 4.41067 11.8381 3.43189 11.3329C2.45312 10.8278 1.63228 10.063 1.05932 9.12232C0.486354 8.18165 0.18338 7.10141 0.183594 5.99997Z" fill="#6B7280"/>
</svg>
